<svg id="visual" viewBox="0 0 1600 900"  xmlns="http://www.w3.org/2000/svg" xmlns:xlink="http://www.w3.org/1999/xlink" version="1.1"><path d="M0 199L24.2 203.5C48.3 208 96.7 217 145.2 221.5C193.7 226 242.3 226 290.8 203.5C339.3 181 387.7 136 436.2 119.5C484.7 103 533.3 115 581.8 125.5C630.3 136 678.7 145 727.2 149.5C775.7 154 824.3 154 872.8 157C921.3 160 969.7 166 1018.2 164.5C1066.7 163 1115.3 154 1163.8 163C1212.3 172 1260.7 199 1309.2 193C1357.7 187 1406.3 148 1454.8 125.5C1503.3 103 1551.7 97 1575.8 94L1600 91L1600 0L1575.8 0C1551.7 0 1503.3 0 1454.8 0C1406.3 0 1357.7 0 1309.2 0C1260.7 0 1212.3 0 1163.8 0C1115.3 0 1066.7 0 1018.2 0C969.7 0 921.3 0 872.8 0C824.3 0 775.7 0 727.2 0C678.7 0 630.3 0 581.8 0C533.3 0 484.7 0 436.2 0C387.7 0 339.3 0 290.8 0C242.3 0 193.7 0 145.2 0C96.7 0 48.3 0 24.2 0L0 0Z" fill="#6198ff"></path><path d="M0 280L24.2 289C48.3 298 96.7 316 145.2 326.5C193.7 337 242.3 340 290.8 329.5C339.3 319 387.7 295 436.2 278.5C484.7 262 533.3 253 581.8 250C630.3 247 678.7 250 727.2 247C775.7 244 824.3 235 872.8 232C921.3 229 969.7 232 1018.2 248.5C1066.7 265 1115.3 295 1163.8 320.5C1212.3 346 1260.7 367 1309.2 359.5C1357.7 352 1406.3 316 1454.8 289C1503.3 262 1551.7 244 1575.8 235L1600 226L1600 89L1575.8 92C1551.7 95 1503.3 101 1454.8 123.5C1406.3 146 1357.7 185 1309.2 191C1260.7 197 1212.3 170 1163.8 161C1115.3 152 1066.7 161 1018.2 162.5C969.7 164 921.3 158 872.8 155C824.3 152 775.7 152 727.2 147.5C678.7 143 630.3 134 581.8 123.5C533.3 113 484.7 101 436.2 117.5C387.7 134 339.3 179 290.8 201.5C242.3 224 193.7 224 145.2 219.5C96.7 215 48.3 206 24.2 201.5L0 197Z" fill="#3c80ff"></path><path d="M0 604L24.2 586C48.3 568 96.7 532 145.2 530.5C193.7 529 242.3 562 290.8 551.5C339.3 541 387.7 487 436.2 485.5C484.7 484 533.3 535 581.8 562C630.3 589 678.7 592 727.2 571C775.7 550 824.3 505 872.8 515.5C921.3 526 969.7 592 1018.2 598C1066.7 604 1115.3 550 1163.8 547C1212.3 544 1260.7 592 1309.2 589C1357.7 586 1406.3 532 1454.8 514C1503.3 496 1551.7 514 1575.8 523L1600 532L1600 224L1575.8 233C1551.7 242 1503.3 260 1454.8 287C1406.3 314 1357.7 350 1309.2 357.5C1260.7 365 1212.3 344 1163.8 318.5C1115.3 293 1066.7 263 1018.2 246.5C969.7 230 921.3 227 872.8 230C824.3 233 775.7 242 727.2 245C678.7 248 630.3 245 581.8 248C533.3 251 484.7 260 436.2 276.5C387.7 293 339.3 317 290.8 327.5C242.3 338 193.7 335 145.2 324.5C96.7 314 48.3 296 24.2 287L0 278Z" fill="#0066ff"></path><path d="M0 775L24.2 776.5C48.3 778 96.7 781 145.2 781C193.7 781 242.3 778 290.8 775C339.3 772 387.7 769 436.2 773.5C484.7 778 533.3 790 581.8 797.5C630.3 805 678.7 808 727.2 800.5C775.7 793 824.3 775 872.8 772C921.3 769 969.7 781 1018.2 794.5C1066.7 808 1115.3 823 1163.8 827.5C1212.3 832 1260.7 826 1309.2 812.5C1357.7 799 1406.3 778 1454.8 776.5C1503.3 775 1551.7 793 1575.8 802L1600 811L1600 530L1575.8 521C1551.7 512 1503.3 494 1454.8 512C1406.3 530 1357.7 584 1309.2 587C1260.7 590 1212.3 542 1163.8 545C1115.3 548 1066.7 602 1018.2 596C969.7 590 921.3 524 872.8 513.5C824.3 503 775.7 548 727.2 569C678.7 590 630.3 587 581.8 560C533.3 533 484.7 482 436.2 483.5C387.7 485 339.3 539 290.8 549.5C242.3 560 193.7 527 145.2 528.5C96.7 530 48.3 566 24.2 584L0 602Z" fill="#0059dd"></path><path d="M0 901L24.2 901C48.3 901 96.7 901 145.2 901C193.7 901 242.3 901 290.8 901C339.3 901 387.7 901 436.2 901C484.7 901 533.3 901 581.8 901C630.3 901 678.7 901 727.2 901C775.7 901 824.3 901 872.8 901C921.3 901 969.7 901 1018.2 901C1066.7 901 1115.3 901 1163.8 901C1212.3 901 1260.7 901 1309.2 901C1357.7 901 1406.3 901 1454.8 901C1503.3 901 1551.7 901 1575.8 901L1600 901L1600 809L1575.8 800C1551.7 791 1503.3 773 1454.8 774.5C1406.3 776 1357.7 797 1309.2 810.5C1260.7 824 1212.3 830 1163.8 825.5C1115.3 821 1066.7 806 1018.2 792.5C969.7 779 921.3 767 872.8 770C824.3 773 775.7 791 727.2 798.5C678.7 806 630.3 803 581.8 795.5C533.3 788 484.7 776 436.2 771.5C387.7 767 339.3 770 290.8 773C242.3 776 193.7 779 145.2 779C96.7 779 48.3 776 24.2 774.5L0 773Z" fill="#004cbb"></path></svg>